<?xml version="1.0" encoding="UTF-8"?>
<svg id="Layer_1" xmlns="http://www.w3.org/2000/svg" version="1.1" viewBox="0 0 24 24">
  <!-- Generator: Adobe Illustrator 30.7.0, SVG Export Plug-In . SVG Version: 2.1.4 Build 114)  -->
  <defs>
    <style>
      .st0 {
        fill: #fff;
      }
    </style>
  </defs>
  <g id="_ò__1">
    <g>
      <path class="st0" d="M8.5,10.7c0-.3-.2-.6-.3-.9,0-.3-.2-.6-.3-.9,0-.3-.1-.5-.2-.8h0c0,.4-.2.9-.3,1.3-.1.5-.3,1-.5,1.5-.1.5-.3,1-.4,1.4h2.5c0-.2-.1-.5-.2-.7,0-.3-.2-.6-.3-.9h0Z"/>
      <path class="st0" d="M17.1,10.5c-.5,0-1.1.3-1.3.8-.1.2-.2.5-.2.7h2.1c.3,0,.5,0,.6,0,0,0,.2,0,.2,0h0c0-.2,0-.3,0-.5-.2-.6-.7-.9-1.3-.9h0Z"/>
      <path class="st0" d="M19.7.3H4.3C1.9.3,0,2.2,0,4.6v14.9c0,2.3,1.9,4.3,4.3,4.3h15.5c2.3,0,4.3-1.9,4.3-4.3V4.6c0-2.3-1.9-4.3-4.3-4.3h0ZM12.7,16.8h-2.1c0,0-.1,0-.2-.1l-.8-2.4h0c0,0-3.7,0-3.7,0l-.8,2.4c0,0,0,.1-.2.1h-1.9c-.1,0-.1,0-.1-.2l3.2-9.2c0,0,0-.2,0-.3,0-.2,0-.4,0-.6,0,0,0,0,0-.1h2.6c0,0,.1,0,.1,0l3.6,10.2c0,.1,0,.2,0,.2h0ZM20.5,12.8c0,.2,0,.3,0,.4,0,0,0,.1-.1.1s-.2,0-.3,0c-.2,0-.3,0-.6,0s-.5,0-.7,0h-3.2c0,.3.1.6.3.9.2.3.4.5.7.6.4.2.8.3,1.3.3.3,0,.7,0,1-.1.3,0,.6-.1.9-.2,0,0,0,0,0,0v1.5s0,0,0,.1c0,0,0,0,0,0-.3.1-.6.2-1,.3-.5,0-.9.1-1.4.1-.8,0-1.4-.1-1.9-.3-.5-.2-.9-.5-1.3-1-.3-.4-.5-.8-.7-1.3-.1-.5-.2-1-.2-1.5s0-1.1.3-1.6c.2-.5.4-1,.8-1.4.3-.4.7-.7,1.2-1s1-.3,1.7-.3c.5,0,1.1,0,1.6.3.4.2.8.5,1,.8.3.3.5.7.6,1.1.1.4.2.8.2,1.2s0,.5,0,.6h0Z"/>
    </g>
  </g>
</svg>